<?xml version="1.0" encoding="UTF-8" standalone="no"?>
<!DOCTYPE svg PUBLIC "-//W3C//DTD SVG 1.1//EN" "http://www.w3.org/Graphics/SVG/1.1/DTD/svg11.dtd">
<svg width="100%" height="100%" viewBox="0 0 500 500" version="1.1" xmlns="http://www.w3.org/2000/svg" xmlnsXlink="http://www.w3.org/1999/xlink" xmlSpace="preserve" xmlnsSerif="http://www.serif.com/" style="fill-rule:evenodd;clip-rule:evenodd;stroke-linejoin:round;stroke-miterlimit:2;">
    <path d="M500,125C500,56.011 443.989,0 375,0L125,0C56.011,0 0,56.011 0,125L0,375C0,443.989 56.011,500 125,500L375,500C443.989,500 500,443.989 500,375L500,125ZM300.388,404.405L319.246,402.571C320.381,408.901 322.684,413.55 326.155,416.519C329.625,419.487 334.307,420.971 340.2,420.971C346.443,420.971 351.147,419.651 354.311,417.01C357.476,414.369 359.059,411.28 359.059,407.744C359.059,405.474 358.393,403.542 357.062,401.949C355.73,400.356 353.406,398.97 350.088,397.791C347.818,397.005 342.645,395.608 334.569,393.6C324.179,391.025 316.889,387.86 312.698,384.105C306.805,378.823 303.858,372.384 303.858,364.788C303.858,359.899 305.244,355.326 308.016,351.07C310.788,346.814 314.783,343.573 319.999,341.346C325.216,339.12 331.513,338.007 338.891,338.007C350.939,338.007 360.008,340.648 366.098,345.93C372.188,351.212 375.386,358.262 375.691,367.08L356.309,367.932C355.479,362.999 353.7,359.452 350.972,357.291C348.244,355.13 344.151,354.05 338.694,354.05C333.063,354.05 328.654,355.206 325.467,357.52C323.415,359.004 322.389,360.991 322.389,363.479C322.389,365.749 323.35,367.691 325.271,369.307C327.715,371.358 333.652,373.497 343.081,375.724C352.511,377.95 359.484,380.253 364.003,382.632C368.521,385.011 372.057,388.263 374.611,392.389C377.164,396.514 378.441,401.611 378.441,407.679C378.441,413.179 376.913,418.33 373.858,423.132C370.802,427.934 366.48,431.503 360.892,433.838C355.305,436.174 348.342,437.342 340.004,437.342C327.868,437.342 318.548,434.537 312.043,428.927C305.539,423.318 301.654,415.143 300.388,404.405ZM210.94,404.405L229.799,402.571C230.934,408.901 233.237,413.55 236.707,416.519C240.178,419.487 244.86,420.971 250.753,420.971C256.996,420.971 261.699,419.651 264.864,417.01C268.029,414.369 269.612,411.28 269.612,407.744C269.612,405.474 268.946,403.542 267.614,401.949C266.283,400.356 263.958,398.97 260.641,397.791C258.371,397.005 253.198,395.608 245.122,393.6C234.732,391.025 227.442,387.86 223.251,384.105C217.358,378.823 214.411,372.384 214.411,364.788C214.411,359.899 215.797,355.326 218.569,351.07C221.341,346.814 225.335,343.573 230.552,341.346C235.769,339.12 242.066,338.007 249.443,338.007C261.492,338.007 270.561,340.648 276.651,345.93C282.741,351.212 285.938,358.262 286.244,367.08L266.861,367.932C266.032,362.999 264.253,359.452 261.525,357.291C258.796,355.13 254.704,354.05 249.247,354.05C243.616,354.05 239.207,355.206 236.02,357.52C233.968,359.004 232.942,360.991 232.942,363.479C232.942,365.749 233.903,367.691 235.823,369.307C238.268,371.358 244.205,373.497 253.634,375.724C263.063,377.95 270.037,380.253 274.555,382.632C279.074,385.011 282.61,388.263 285.163,392.389C287.717,396.514 288.994,401.611 288.994,407.679C288.994,413.179 287.466,418.33 284.41,423.132C281.355,427.934 277.033,431.503 271.445,433.838C265.857,436.174 258.895,437.342 250.557,437.342C238.421,437.342 229.101,434.537 222.596,428.927C216.092,423.318 212.206,415.143 210.94,404.405ZM180.426,400.345L199.219,406.304C196.338,416.781 191.547,424.562 184.846,429.648C178.145,434.733 169.644,437.276 159.341,437.276C146.594,437.276 136.117,432.922 127.91,424.213C119.703,415.504 115.6,403.597 115.6,388.493C115.6,372.515 119.725,360.107 127.976,351.267C136.226,342.427 147.075,338.007 160.52,338.007C172.263,338.007 181.801,341.477 189.135,348.418C193.501,352.522 196.775,358.415 198.957,366.098L179.771,370.682C178.636,365.705 176.268,361.776 172.667,358.895C169.065,356.014 164.689,354.573 159.538,354.573C152.422,354.573 146.649,357.127 142.218,362.235C137.787,367.342 135.572,375.615 135.572,387.052C135.572,399.188 137.754,407.831 142.12,412.983C146.485,418.134 152.16,420.709 159.145,420.709C164.296,420.709 168.727,419.072 172.438,415.798C176.148,412.524 178.811,407.373 180.426,400.345ZM293.381,285.425L282.249,299.635C276.793,296.972 271.554,293.305 266.534,288.634C262.649,292.126 258.523,294.702 254.158,296.361C249.793,298.02 244.598,298.849 238.574,298.849C226.612,298.849 217.62,295.488 211.595,288.765C206.924,283.57 204.589,277.589 204.589,270.823C204.589,264.668 206.422,259.135 210.089,254.224C213.756,249.312 219.235,245.045 226.525,241.422C223.251,237.537 220.784,233.837 219.126,230.323C217.467,226.809 216.637,223.48 216.637,220.337C216.637,214.531 218.962,209.609 223.611,205.571C228.26,201.533 234.885,199.514 243.485,199.514C251.779,199.514 258.262,201.631 262.933,205.866C267.604,210.1 269.939,215.273 269.939,221.385C269.939,225.27 268.782,228.959 266.469,232.451C264.155,235.943 259.484,239.894 252.456,244.303L265.814,261.918C267.385,259.124 268.739,255.479 269.874,250.982L286.506,254.78C284.847,260.673 283.406,264.984 282.184,267.713C280.962,270.441 279.652,272.722 278.255,274.555C280.307,276.476 282.959,278.583 286.211,280.874C289.463,283.166 291.853,284.683 293.381,285.425ZM236.085,253.209C231.851,255.348 228.686,257.923 226.59,260.935C224.495,263.947 223.447,267.025 223.447,270.168C223.447,274.141 224.746,277.382 227.344,279.892C229.941,282.402 233.422,283.657 237.788,283.657C240.669,283.657 243.441,283.09 246.104,281.955C248.767,280.82 251.67,278.943 254.813,276.323L236.085,253.209ZM243.288,233.237L248.265,229.439C251.932,226.601 253.765,223.786 253.765,220.992C253.765,218.635 252.881,216.626 251.113,214.968C249.345,213.309 246.955,212.479 243.943,212.479C241.018,212.479 238.726,213.211 237.067,214.673C235.409,216.135 234.579,217.827 234.579,219.748C234.579,222.018 235.976,224.768 238.77,227.998L243.288,233.237ZM361.678,158.654L361.678,63.444L381.061,63.444L381.061,142.48L429.255,142.48L429.255,158.654L361.678,158.654ZM189.135,158.654L189.135,78.898L160.651,78.898L160.651,62.658L236.937,62.658L236.937,78.898L208.518,78.898L208.518,158.654L189.135,158.654ZM70.745,158.654L70.745,62.658L90.128,62.658L90.128,100.441L128.107,100.441L128.107,62.658L147.489,62.658L147.489,158.654L128.107,158.654L128.107,116.68L90.128,116.68L90.128,158.654L70.745,158.654ZM249.181,158.654L249.181,62.658L278.19,62.658L295.608,128.14L312.829,62.658L341.903,62.658L341.903,158.654L323.895,158.654L323.895,83.089L304.84,158.654L286.178,158.654L267.189,83.089L267.189,158.654L249.181,158.654Z" style="fill:rgb(42,42,42);"/>
</svg>
