<?xml version="1.0" encoding="UTF-8"?>
<!DOCTYPE svg  PUBLIC '-//W3C//DTD SVG 1.1//EN'  'http://www.w3.org/Graphics/SVG/1.1/DTD/svg11.dtd'>
<svg clip-rule="evenodd" fill-rule="evenodd" stroke-linejoin="round" stroke-miterlimit="2" version="1.1" viewBox="0 0 500 500" xml:space="preserve" xmlns="http://www.w3.org/2000/svg">
    <g transform="matrix(1.6178 0 0 1.6178 -82.386 -145.6)" fill="#2a2a2a" fill-rule="nonzero">
        <path d="m239.61 255.92s-17.226-33.158-16.579-57.446c0.464-17.292 39.508-34.451 54.86-59.32 15.351-24.935-1.874-49.156-1.874-49.156s3.813 17.872-6.416 36.39c-10.163 18.453-47.863 29.345-62.553 61.26-14.639 31.931 32.562 68.272 32.562 68.272z"/>
        <path d="m304.12 155.09s-58.739 22.332-58.739 47.847c0 25.582 15.932 33.871 18.519 42.16 2.536 8.29-4.46 22.349-4.46 22.349s22.978-15.999 19.099-34.451c-3.813-18.519-21.702-24.289-11.457-42.807 6.864-12.368 37.038-35.098 37.038-35.098z"/>
        <path d="m233.28 289.66c54.263-1.939 74.008-19.049 74.008-19.049-35.097 9.583-128.29 8.936-128.93 1.94-0.647-7.046 28.698-12.816 28.698-12.816s-45.924 0-49.737 11.522c-3.829 11.473 21.685 20.343 75.965 18.403z"/>
        <path d="m311.76 316.6s53.103-11.34 47.863-40.22c-6.35-35.098-43.403-15.286-43.403-15.286s26.178 0 28.698 15.932c2.586 15.932-33.158 39.574-33.158 39.574z"/>
        <path d="m285.6 301.25s-13.412 3.564-33.224 5.769c-26.559 2.968-58.739 0.647-61.259-3.829-2.537-4.46 4.459-7.063 4.459-7.063-31.931 7.709-14.44 21.056 22.929 23.642 32.113 2.205 79.844-9.583 79.844-9.583l-12.749-8.936z"/>
        <path d="m203.28 329.17s-14.506 0.381-15.352 8.025c-0.846 7.642 8.936 14.506 44.68 16.578 35.761 2.139 60.812-9.715 60.812-9.715l-16.115-9.848s-10.23 2.139-25.98 4.277c-15.734 2.139-48.046-1.691-49.339-4.659-1.292-2.984 1.294-4.658 1.294-4.658z"/>
        <path d="m226.66 383.63c76.545-0.066 110.23-14.059 115.74-20.011 5.504-5.968-1.758-10.627-1.758-10.627s2.586 2.985-0.779 6.35c-3.432 3.432-34.518 11.921-84.321 14.44-49.737 2.586-103.8-4.659-105.49-11.008-1.69-6.416 27.654-11.522 27.654-11.522-3.366 0.447-44.233 1.292-45.526 12.367-1.291 11.075 17.873 20.011 94.485 20.011z"/>
        <path d="m312.61 388.74c-33.622 6.747-135.75 2.47-135.75 2.47s66.382 15.8 142.15 2.586c36.208-6.35 38.281-23.84 38.281-23.84s-11.076 11.921-44.681 18.784z"/>
    </g>
</svg>
