<?xml version="1.0" encoding="UTF-8" standalone="no"?>
<!DOCTYPE svg PUBLIC "-//W3C//DTD SVG 1.1//EN" "http://www.w3.org/Graphics/SVG/1.1/DTD/svg11.dtd">
<svg width="100%" height="100%" viewBox="0 0 500 500" version="1.1" xmlns="http://www.w3.org/2000/svg" xmlnsXlink="http://www.w3.org/1999/xlink" xmlSpace="preserve" xmlnsSerif="http://www.serif.com/" style="fill-rule:evenodd;clip-rule:evenodd;">
    <g transform="matrix(1.16285,0,0,1.16285,5.80057,5.80057)">
        <path d="M209,15C102.405,15.547 15,103.401 15,209.997C15,316.971 103.026,404.997 210,404.997C316.974,404.997 405,316.971 405,209.997C405,103.401 317.595,15.547 211,15L209,15Z" style="fill:none;fill-rule:nonzero;stroke:rgb(42,42,42);stroke-width:26px;"/>
    </g>
    <g transform="matrix(1.16285,0,0,1.16285,5.80057,5.80057)">
        <path d="M210,15L210,405M405,210L15,210M59,90C149.124,154.296 270.876,154.296 361,90M361,330C270.876,265.704 149.124,265.704 59,330M195,20C138.786,67.474 106.304,137.422 106.304,211C106.304,284.578 138.786,354.526 195,402M225,402C281.214,354.526 313.696,284.578 313.696,211C313.696,137.422 281.214,67.474 225,20" style="fill:none;fill-rule:nonzero;stroke:rgb(42,42,42);stroke-width:18px;"/>
    </g>
</svg>
