<?xml version="1.0" encoding="UTF-8"?>
<!DOCTYPE svg  PUBLIC '-//W3C//DTD SVG 1.1//EN'  'http://www.w3.org/Graphics/SVG/1.1/DTD/svg11.dtd'>
<svg clip-rule="evenodd" fill-rule="evenodd" stroke-linejoin="round" stroke-miterlimit="2" version="1.1" viewBox="0 0 590 362" xml:space="preserve" xmlns="http://www.w3.org/2000/svg">
    <path d="m291.53 361.24c-1.947 0-3.88-0.51-5.587-1.493l-17.783-10.528c-2.656-1.485-1.36-2.011-0.484-2.313 3.542-1.24 4.26-1.52 8.04-3.667 0.398-0.227 0.918-0.147 1.324 0.093l13.662 8.107c0.493 0.267 1.193 0.267 1.65 0l53.267-30.747c0.493-0.28 0.813-0.853 0.813-1.44v-61.466c0-0.613-0.32-1.16-0.824-1.467l-53.245-30.72c-0.493-0.293-1.147-0.293-1.64 0l-53.235 30.72c-0.516 0.294-0.844 0.867-0.844 1.454v61.466c0 0.587 0.32 1.147 0.827 1.427l14.587 8.426c7.92 3.96 12.76-0.706 12.76-5.4v-60.666c0-0.867 0.68-1.533 1.546-1.533h6.747c0.84 0 1.533 0.666 1.533 1.533v60.693c0 10.56-5.76 16.627-15.773 16.627-3.08 0-5.507 0-12.28-3.334l-13.973-8.053c-3.454-2-5.587-5.733-5.587-9.72v-61.466c0-4 2.133-7.734 5.587-9.707l53.32-30.76c3.373-1.907 7.853-1.907 11.199 0l53.254 30.773c3.44 1.987 5.586 5.707 5.586 9.707v61.466c0 3.987-2.146 7.707-5.586 9.707l-53.254 30.76c-1.706 0.987-3.639 1.493-5.613 1.493l6e-3 0.028zm16.453-42.354c-23.307 0-28.193-10.699-28.193-19.672 0-0.854 0.688-1.534 1.542-1.534h6.88c0.76 0 1.4 0.554 1.52 1.304 1.04 7.011 4.134 10.547 18.227 10.547 11.226 0 16-2.536 16-8.489 0-3.427-1.36-5.974-18.8-7.68-14.587-1.44-23.6-4.654-23.6-16.32 0-10.747 9.067-17.147 24.253-17.147 17.053 0 25.507 5.92 26.573 18.64 0.04 0.44-0.12 0.867-0.413 1.187-0.293 0.306-0.707 0.493-1.133 0.493h-6.92c-0.72 0-1.347-0.507-1.494-1.2-1.666-7.373-5.693-9.733-16.64-9.733-12.253 0-13.679 4.266-13.679 7.466 0 3.88 1.68 5.014 18.213 7.2 16.373 2.174 24.146 5.24 24.146 16.747 0 11.6-9.68 18.253-26.56 18.253l0.078-0.062zm76.736-64.404c0 5.653-4.627 10.267-10.267 10.267-5.6 0-10.267-4.56-10.267-10.267 0-5.813 4.774-10.267 10.267-10.267 5.533 0 10.253 4.467 10.253 10.267h0.014zm-18.867-0.027c0 4.774 3.853 8.64 8.587 8.64 4.773 0 8.626-3.946 8.626-8.64 0-4.786-3.906-8.586-8.64-8.586-4.666 0-8.586 3.746-8.586 8.573l0.013 0.013zm4.76-5.733h3.96c1.36 0 4.027 0 4.027 3.04 0 2.12-1.36 2.56-2.174 2.827 1.587 0.106 1.694 1.146 1.907 2.613 0.107 0.92 0.28 2.507 0.6 3.04h-2.44c-0.067-0.533-0.44-3.467-0.44-3.627-0.16-0.653-0.387-0.973-1.2-0.973h-2.013v4.613h-2.227v-11.533zm2.173 5.04h1.787c1.467 0 1.747-1.027 1.747-1.627 0-1.573-1.08-1.573-1.68-1.573h-1.84l-0.014 3.2zm25.527-253.33c-1.059-0.589-2.347-0.573-3.392 0.036-1.04 0.613-1.683 1.733-1.683 2.947v86.666c0 0.853-0.453 1.64-1.192 2.067-0.733 0.426-1.646 0.426-2.386 0l-14.147-8.148c-2.107-1.219-4.701-1.219-6.816 0l-56.493 32.604c-2.111 1.213-3.414 3.466-3.414 5.893v65.227c0 2.44 1.303 4.68 3.414 5.906l56.493 32.627c2.109 1.213 4.707 1.213 6.823 0l56.493-32.64c2.107-1.227 3.413-3.467 3.413-5.907v-162.56c0-2.475-1.346-4.751-3.506-5.96l-33.607-18.759zm-184.01 83.02-56.173 32.422c-2.104 1.214-3.395 3.454-3.395 5.875v64.891c0 2.422 1.291 4.661 3.395 5.874l56.177 32.448c2.1 1.21 4.689 1.21 6.787 0l56.168-32.448c2.093-1.213 3.386-3.453 3.386-5.874v-64.891c0-2.421-1.293-4.661-3.4-5.875l-56.16-32.422c-1.053-0.604-2.226-0.907-3.4-0.907-1.173 0-2.346 0.303-3.4 0.907h0.015zm372.14 59.865c2.098-1.219 3.39-3.469 3.39-5.896v-15.808c0-2.432-1.293-4.676-3.396-5.9l-56.133-32.586c-2.12-1.227-4.72-1.227-6.84 0l-56.48 32.599c-2.12 1.227-3.413 3.467-3.413 5.907v65.2c0 2.453 1.32 4.72 3.44 5.933l56.12 31.987c2.066 1.187 4.6 1.2 6.693 0.04l33.947-18.867c1.066-0.6 1.746-1.733 1.746-2.96 0-1.226-0.653-2.373-1.72-2.973l-56.826-32.613c-1.067-0.6-1.72-1.734-1.72-2.947v-20.453c0-1.222 0.64-2.347 1.706-2.955l17.68-10.2c1.054-0.613 2.347-0.613 3.4 0l17.694 10.2c1.053 0.6 1.706 1.733 1.706 2.947v16.08c0 1.213 0.654 2.346 1.707 2.96 1.053 0.6 2.36 0.6 3.413-0.014l33.886-19.681zm-459.85-22.584c0-2.453-1.294-4.707-3.411-5.927l-56.474-32.493c-0.954-0.56-2.022-0.853-3.104-0.893h-0.584c-1.083 0.04-2.151 0.333-3.12 0.893l-56.472 32.493c-2.104 1.227-3.416 3.48-3.416 5.934l0.124 87.52c0 1.213 0.626 2.346 1.693 2.946 1.04 0.64 2.347 0.64 3.387 0l33.573-19.226c2.12-1.262 3.413-3.491 3.413-5.92v-40.887c0-2.44 1.294-4.693 3.407-5.907l14.293-8.232c1.062-0.613 2.227-0.917 3.414-0.917 1.168 0 2.36 0.301 3.392 0.916l14.286 8.229c2.115 1.214 3.414 3.467 3.414 5.907v40.884c0 2.427 1.31 4.667 3.42 5.92l33.551 19.213c1.054 0.627 2.364 0.627 3.414 0 1.034-0.6 1.69-1.733 1.69-2.946l0.11-87.507zm266.49 45.568c0 0.609-0.324 1.173-0.853 1.475l-19.398 11.181c-0.526 0.303-1.177 0.303-1.702 0l-19.4-11.181c-0.534-0.303-0.854-0.867-0.854-1.475v-22.395c0-0.61 0.32-1.173 0.84-1.48l19.387-11.2c0.533-0.306 1.187-0.306 1.72 0l19.4 11.2c0.533 0.307 0.853 0.87 0.853 1.48l7e-3 22.395zm132.98-26.035c0.4-0.236 0.902-0.236 1.307 0l10.84 6.254c0.405 0.234 0.653 0.666 0.653 1.133v12.52c0 0.467-0.248 0.899-0.653 1.133l-10.84 6.254c-0.405 0.236-0.907 0.236-1.307 0l-10.833-6.254c-0.413-0.234-0.667-0.666-0.667-1.133v-12.52c0-0.467 0.24-0.899 0.654-1.133l10.846-6.254z" fill="#2a2a2a"/>
</svg>
