<?xml version="1.0" encoding="UTF-8"?>
<!DOCTYPE svg  PUBLIC '-//W3C//DTD SVG 1.1//EN'  'http://www.w3.org/Graphics/SVG/1.1/DTD/svg11.dtd'>
<svg clip-rule="evenodd" fill-rule="evenodd" stroke-linejoin="round" stroke-miterlimit="2" version="1.1" viewBox="0 0 256 255" xml:space="preserve" xmlns="http://www.w3.org/2000/svg">
    <g fill-rule="nonzero">
        <path d="m126.92 0.072c-64.832 0-60.784 28.115-60.784 28.115l0.072 29.128h61.868v8.745h-86.441s-41.486-4.705-41.486 60.711c0 65.417 36.21 63.097 36.21 63.097h21.61v-30.356s-1.165-36.21 35.632-36.21h61.362s34.475 0.557 34.475-33.319v-56.013s5.235-33.898-62.518-33.898zm-34.114 19.587c6.155 0 11.13 4.975 11.13 11.13 0 6.156-4.975 11.131-11.13 11.131-6.156 0-11.131-4.975-11.131-11.131 0-6.155 4.975-11.13 11.131-11.13z" fill="#222"/>
        <path d="m128.76 254.13c64.832 0 60.784-28.115 60.784-28.115l-0.072-29.127h-61.868v-8.745h86.441s41.486 4.705 41.486-60.712c0-65.416-36.21-63.096-36.21-63.096h-21.61v30.355s1.165 36.21-35.632 36.21h-61.362s-34.475-0.557-34.475 33.319v56.014s-5.235 33.897 62.518 33.897zm34.114-19.586c-6.155 0-11.13-4.975-11.13-11.131 0-6.155 4.975-11.13 11.13-11.13 6.156 0 11.131 4.975 11.131 11.13 0 6.156-4.975 11.131-11.131 11.131z" fill="#2a2a2a"/>
    </g>
</svg>
