<?xml version="1.0" encoding="UTF-8" standalone="no"?>
<!DOCTYPE svg PUBLIC "-//W3C//DTD SVG 1.1//EN" "http://www.w3.org/Graphics/SVG/1.1/DTD/svg11.dtd">
<svg width="100%" height="100%" viewBox="0 0 500 500" version="1.1" xmlns="http://www.w3.org/2000/svg" xmlnsXlink="http://www.w3.org/1999/xlink" xmlSpace="preserve" xmlnsSerif="http://www.serif.com/" style="fill-rule:evenodd;clip-rule:evenodd;stroke-linejoin:round;stroke-miterlimit:2;">
    <path d="M500,125C500,56.011 443.989,-0 375,-0L125,-0C56.011,-0 0,56.011 0,125L0,375C0,443.989 56.011,500 125,500L375,500C443.989,500 500,443.989 500,375L500,125ZM364.066,392.329C368.042,395.174 372.365,397.436 377.034,399.114L371.07,410.551C368.626,409.821 366.236,408.818 363.901,407.541C363.391,407.286 359.797,404.915 353.121,400.428C347.868,402.726 342.05,403.875 335.665,403.875C323.335,403.875 313.677,400.245 306.691,392.985C299.705,385.726 296.212,375.53 296.212,362.397C296.212,349.3 299.714,339.113 306.718,331.835C313.722,324.557 323.226,320.918 335.228,320.918C347.12,320.918 356.551,324.557 363.518,331.835C370.486,339.113 373.97,349.3 373.97,362.397C373.97,369.328 373.003,375.42 371.07,380.673C369.611,384.686 367.276,388.571 364.066,392.329ZM220.642,376.405L236.402,374.873C237.35,380.163 239.275,384.048 242.175,386.528C245.075,389.009 248.988,390.249 253.913,390.249C259.129,390.249 263.06,389.146 265.705,386.939C268.35,384.732 269.672,382.151 269.672,379.196C269.672,377.299 269.116,375.685 268.003,374.353C266.89,373.022 264.948,371.863 262.175,370.878C260.278,370.222 255.955,369.054 249.207,367.376C240.524,365.224 234.432,362.579 230.93,359.442C226.005,355.027 223.542,349.647 223.542,343.299C223.542,339.213 224.701,335.392 227.017,331.835C229.334,328.278 232.672,325.569 237.031,323.709C241.391,321.848 246.653,320.918 252.818,320.918C262.887,320.918 270.466,323.125 275.555,327.539C280.644,331.954 283.316,337.845 283.571,345.214L267.374,345.926C266.681,341.803 265.194,338.839 262.914,337.033C260.634,335.228 257.214,334.325 252.654,334.325C247.948,334.325 244.263,335.292 241.6,337.225C239.886,338.465 239.028,340.125 239.028,342.205C239.028,344.102 239.831,345.725 241.436,347.075C243.479,348.789 248.44,350.577 256.32,352.437C264.2,354.298 270.028,356.222 273.804,358.21C277.579,360.199 280.534,362.916 282.668,366.364C284.802,369.811 285.869,374.07 285.869,379.141C285.869,383.738 284.593,388.042 282.039,392.055C279.485,396.068 275.874,399.05 271.204,401.002C266.535,402.954 260.716,403.93 253.748,403.93C243.607,403.93 235.818,401.586 230.383,396.898C224.947,392.21 221.7,385.379 220.642,376.405ZM134.293,362.889C134.293,354.717 135.515,347.859 137.959,342.314C139.783,338.228 142.273,334.562 145.429,331.315C148.584,328.068 152.041,325.661 155.798,324.092C160.796,321.976 166.56,320.918 173.09,320.918C184.91,320.918 194.367,324.584 201.463,331.917C208.558,339.25 212.106,349.446 212.106,362.506C212.106,375.457 208.585,385.589 201.545,392.903C194.504,400.218 185.092,403.875 173.309,403.875C161.38,403.875 151.895,400.236 144.854,392.958C137.813,385.68 134.293,375.657 134.293,362.889ZM387.103,402.507L387.103,322.943L403.3,322.943L403.3,388.991L443.575,388.991L443.575,402.507L387.103,402.507ZM56.808,402.507L56.808,322.286L72.568,322.286L105.4,375.858L105.4,322.286L120.448,322.286L120.448,402.507L104.196,402.507L71.856,350.194L71.856,402.507L56.808,402.507ZM351.042,383.19C353.121,380.746 354.681,377.791 355.721,374.326C356.76,370.86 357.28,366.884 357.28,362.397C357.28,353.13 355.237,346.208 351.151,341.63C347.066,337.052 341.721,334.763 335.118,334.763C328.515,334.763 323.162,337.061 319.058,341.657C314.954,346.254 312.902,353.167 312.902,362.397C312.902,371.772 314.954,378.785 319.058,383.437C323.162,388.088 328.351,390.414 334.626,390.414C336.96,390.414 339.168,390.031 341.247,389.264C337.964,387.112 334.626,385.434 331.233,384.23L335.775,374.982C341.101,376.806 346.19,379.542 351.042,383.19ZM150.983,362.342C150.983,371.425 153.08,378.311 157.276,382.999C161.471,387.687 166.797,390.031 173.254,390.031C179.711,390.031 185.01,387.705 189.15,383.054C193.291,378.402 195.361,371.425 195.361,362.123C195.361,352.93 193.346,346.072 189.315,341.548C185.284,337.024 179.93,334.763 173.254,334.763C166.578,334.763 161.197,337.052 157.111,341.63C153.026,346.208 150.983,353.112 150.983,362.342ZM286.389,276.977L277.087,288.852C272.527,286.626 268.149,283.562 263.954,279.659C260.707,282.577 257.26,284.729 253.612,286.116C249.964,287.502 245.622,288.195 240.588,288.195C230.592,288.195 223.077,285.386 218.043,279.768C214.14,275.427 212.188,270.429 212.188,264.775C212.188,259.631 213.72,255.007 216.784,250.903C219.849,246.799 224.427,243.233 230.519,240.205C227.783,236.958 225.722,233.866 224.336,230.93C222.95,227.993 222.257,225.211 222.257,222.585C222.257,217.733 224.199,213.62 228.084,210.245C231.969,206.871 237.505,205.184 244.692,205.184C251.623,205.184 257.041,206.953 260.944,210.492C264.848,214.03 266.799,218.353 266.799,223.46C266.799,226.707 265.833,229.79 263.899,232.708C261.966,235.627 258.062,238.928 252.189,242.613L263.352,257.333C264.665,254.998 265.796,251.952 266.745,248.194L280.644,251.368C279.257,256.293 278.054,259.895 277.032,262.175C276.011,264.455 274.916,266.362 273.749,267.894C275.463,269.499 277.68,271.259 280.397,273.174C283.115,275.089 285.113,276.357 286.389,276.977ZM238.509,250.055C234.97,251.842 232.325,253.995 230.574,256.512C228.823,259.029 227.948,261.601 227.948,264.227C227.948,267.547 229.033,270.256 231.203,272.353C233.374,274.451 236.283,275.5 239.931,275.5C242.339,275.5 244.656,275.026 246.881,274.077C249.106,273.129 251.532,271.56 254.159,269.371L238.509,250.055ZM244.528,233.365L248.687,230.191C251.751,227.82 253.283,225.467 253.283,223.132C253.283,221.162 252.545,219.484 251.067,218.098C249.59,216.712 247.592,216.018 245.075,216.018C242.631,216.018 240.716,216.629 239.329,217.852C237.943,219.074 237.25,220.487 237.25,222.092C237.25,223.989 238.417,226.288 240.752,228.987L244.528,233.365ZM364.066,160.86C368.042,163.705 372.365,165.967 377.034,167.645L371.07,179.082C368.626,178.352 366.236,177.349 363.901,176.072C363.391,175.817 359.797,173.446 353.121,168.958C347.868,171.257 342.05,172.406 335.665,172.406C323.335,172.406 313.677,168.776 306.691,161.516C299.705,154.257 296.212,144.061 296.212,130.928C296.212,117.831 299.714,107.644 306.718,100.366C313.722,93.088 323.226,89.449 335.228,89.449C347.12,89.449 356.551,93.088 363.518,100.366C370.486,107.644 373.97,117.831 373.97,130.928C373.97,137.859 373.003,143.951 371.07,149.204C369.611,153.217 367.276,157.102 364.066,160.86ZM220.642,144.936L236.402,143.404C237.35,148.694 239.275,152.579 242.175,155.059C245.075,157.54 248.988,158.78 253.913,158.78C259.129,158.78 263.06,157.677 265.705,155.47C268.35,153.263 269.672,150.682 269.672,147.727C269.672,145.83 269.116,144.216 268.003,142.884C266.89,141.552 264.948,140.394 262.175,139.409C260.278,138.753 255.955,137.585 249.207,135.907C240.524,133.755 234.432,131.11 230.93,127.973C226.005,123.558 223.542,118.178 223.542,111.83C223.542,107.744 224.701,103.923 227.017,100.366C229.334,96.809 232.672,94.1 237.031,92.24C241.391,90.379 246.653,89.449 252.818,89.449C262.887,89.449 270.466,91.656 275.555,96.07C280.644,100.485 283.316,106.376 283.571,113.745L267.374,114.457C266.681,110.334 265.194,107.37 262.914,105.564C260.634,103.759 257.214,102.856 252.654,102.856C247.948,102.856 244.263,103.822 241.6,105.756C239.886,106.996 239.028,108.656 239.028,110.736C239.028,112.633 239.831,114.256 241.436,115.606C243.479,117.32 248.44,119.108 256.32,120.968C264.2,122.829 270.028,124.753 273.804,126.741C277.579,128.73 280.534,131.447 282.668,134.895C284.802,138.342 285.869,142.601 285.869,147.672C285.869,152.269 284.593,156.573 282.039,160.586C279.485,164.599 275.874,167.581 271.204,169.533C266.535,171.485 260.716,172.461 253.748,172.461C243.607,172.461 235.818,170.117 230.383,165.429C224.947,160.741 221.7,153.91 220.642,144.936ZM171.065,171.038L171.065,137.275L141.68,90.817L160.668,90.817L179.547,122.555L198.043,90.817L216.702,90.817L187.208,137.385L187.208,171.038L171.065,171.038ZM56.425,171.038L56.425,90.817L80.666,90.817L95.222,145.538L109.614,90.817L133.91,90.817L133.91,171.038L118.862,171.038L118.862,107.89L102.938,171.038L87.342,171.038L71.473,107.89L71.473,171.038L56.425,171.038ZM387.103,171.038L387.103,91.474L403.3,91.474L403.3,157.522L443.575,157.522L443.575,171.038L387.103,171.038ZM351.042,151.721C353.121,149.277 354.681,146.322 355.721,142.857C356.76,139.391 357.28,135.415 357.28,130.928C357.28,121.661 355.237,114.739 351.151,110.161C347.066,105.583 341.721,103.294 335.118,103.294C328.515,103.294 323.162,105.592 319.058,110.188C314.954,114.785 312.902,121.698 312.902,130.928C312.902,140.303 314.954,147.316 319.058,151.968C323.162,156.619 328.351,158.945 334.626,158.945C336.96,158.945 339.168,158.562 341.247,157.795C337.964,155.643 334.626,153.965 331.233,152.761L335.775,143.513C341.101,145.337 346.19,148.073 351.042,151.721Z" style="fill:rgb(42,42,42);"/>
</svg>
