<?xml version="1.0" encoding="UTF-8" standalone="no"?>
<!DOCTYPE svg PUBLIC "-//W3C//DTD SVG 1.1//EN" "http://www.w3.org/Graphics/SVG/1.1/DTD/svg11.dtd">
<svg width="100%" height="100%" viewBox="0 0 1280 1030" version="1.1" xmlns="http://www.w3.org/2000/svg" xmlns:xlink="http://www.w3.org/1999/xlink" xml:space="preserve" xmlns:serif="http://www.serif.com/" style="fill-rule:evenodd;clip-rule:evenodd;stroke-linejoin:round;stroke-miterlimit:2;">
    <g transform="matrix(0.1,0,0,-0.1,0,1030)">
        <path d="M11215,10282C11173,10255 11150,10227 11134,10183C11114,10125 11117,10091 11159,9911C11213,9685 11240,9540 11247,9444C11252,9373 11251,9362 11235,9357C11202,9344 10990,9374 10630,9445C9772,9613 9570,9612 9570,9443C9570,9370 9615,9335 9862,9212C10083,9103 10191,9031 10276,8937C10359,8846 10372,8810 10368,8683L10365,8575L10389,8575C10408,8575 10419,8585 10434,8615C10459,8663 10492,8673 10511,8638C10518,8625 10527,8576 10531,8528C10540,8420 10560,8380 10616,8362C10675,8342 10676,8335 10618,8307C10540,8270 10442,8181 10290,8009C9989,7668 9446,7219 8880,6841C8693,6717 8576,6646 8275,6476C7854,6237 7618,6054 7553,5914C7526,5856 7525,5851 7527,5685C7528,5504 7541,5398 7590,5167C7630,4978 7649,4909 7796,4407L7922,3979L7846,3900C7775,3826 7730,3758 7730,3727C7730,3694 7621,3673 7408,3664C7253,3658 7032,3671 6957,3691C6907,3704 6849,3765 6757,3900C6673,4025 6559,4145 6470,4205C6380,4264 6348,4300 6348,4342C6348,4360 6367,4443 6390,4525C6597,5272 6690,5902 6623,6115C6589,6224 6559,6351 6456,6815C6347,7306 6297,7490 6238,7608C6216,7654 6192,7717 6186,7748C6176,7798 6170,7807 6140,7822C6121,7832 6083,7840 6055,7840C5945,7840 5886,7876 5828,7980C5773,8077 5710,8151 5510,8355C5325,8544 5249,8639 5204,8735C5176,8794 5118,8848 5073,8855C5012,8865 4970,8888 4952,8921C4919,8982 4904,8996 4887,8982C4861,8960 4858,8901 4878,8805C4896,8719 4897,8690 4880,8690C4863,8690 4839,8730 4834,8766C4820,8862 4782,8897 4704,8885C4591,8868 4564,8775 4626,8611C4700,8415 4896,8187 5126,8030C5186,7989 5274,7917 5321,7870L5406,7785L5438,7680C5489,7509 5544,7254 5600,6922C5654,6597 5671,6438 5668,6273C5665,6128 5666,6121 5688,6093C5736,6033 5743,6004 5737,5880C5721,5565 5528,5101 5335,4915C5213,4797 4979,4650 4834,4600C4721,4561 4704,4575 4685,4720C4677,4784 4665,4830 4653,4846C4607,4911 4590,4947 4590,4983C4590,5032 4576,5058 4542,5071C4527,5077 4443,5086 4355,5090C4178,5100 4098,5117 4030,5160C3967,5200 3892,5220 3766,5231C3633,5242 3582,5255 3550,5285C3497,5335 3436,5342 3321,5310C3092,5246 2752,5004 2589,4787C2515,4688 2417,4491 2390,4386C2348,4222 2372,4084 2481,3863C2552,3717 2600,3661 2723,3579C2947,3429 3282,3300 3447,3300C3558,3300 3578,3281 3559,3195C3545,3130 3562,3062 3616,2975C3680,2873 3710,2808 3710,2776C3709,2714 3673,2660 3563,2556C3340,2345 3290,2292 3268,2243C3237,2173 3240,2089 3278,1971C3321,1838 3324,1842 3103,1733C2986,1676 2868,1608 2756,1533C2505,1364 2379,1305 2210,1280C2169,1274 2125,1267 2113,1264C2094,1261 2056,1305 1851,1568C1564,1936 1468,2051 1398,2108C1335,2158 1299,2170 1204,2170C1143,2170 1131,2173 1112,2193C1083,2224 1067,2348 1072,2513C1076,2662 1084,2682 1205,2830C1321,2971 1342,3014 1341,3104C1340,3283 1246,3480 1161,3480C1099,3480 1072,3422 1060,3268C1051,3144 1036,3110 991,3110C931,3110 894,3194 816,3502C770,3685 741,3736 688,3728C647,3722 637,3681 629,3475C621,3275 614,3220 601,3220C588,3220 580,3271 565,3469C550,3661 547,3674 523,3727C491,3797 439,3776 356,3661C282,3558 238,3530 151,3530C99,3530 85,3526 65,3506C12,3453 -15,3264 15,3151C40,3056 84,2974 234,2751C309,2641 388,2513 411,2468C447,2396 453,2377 455,2305C459,2212 476,2139 526,2002C605,1787 607,1761 554,1709C441,1600 468,1527 735,1215C939,977 1108,751 1206,583C1275,467 1366,343 1444,261C1523,178 1740,-2 1754,3C1760,5 1891,44 2045,89C3066,389 3104,406 4090,1014C4219,1093 4304,1140 4321,1140C4345,1140 4491,1124 5305,1030C6123,935 6720,844 6825,796C6910,757 7056,662 7231,531C7426,385 7563,297 7710,224C7921,120 7982,114 8245,173C8503,231 8740,260 8955,260L9066,260L9158,449C9281,701 9348,790 9417,790C9466,790 9713,930 9921,1076C10348,1376 10464,1513 10555,1826C10604,1997 10614,2084 10614,2365C10615,2635 10610,2696 10560,3045C10522,3306 10513,3376 10495,3550C10432,4165 10373,5007 10382,5159C10388,5258 10413,5306 10525,5435C10638,5565 10656,5597 10690,5732C10717,5841 10735,5891 10890,6290C10930,6392 10990,6553 11025,6648C11059,6742 11106,6852 11129,6890C11248,7089 11475,7304 11655,7386C11714,7413 11852,7448 12010,7476C12191,7508 12389,7594 12559,7716C12667,7793 12766,7882 12786,7921C12806,7961 12804,7988 12769,8087C12727,8208 12674,8305 12557,8484C12441,8659 12367,8806 12344,8905C12310,9049 12259,9199 12206,9306C12039,9646 11773,9982 11521,10169C11357,10290 11275,10320 11215,10282ZM230,3310C230,3223 223,3190 209,3212C199,3227 197,3360 206,3384C219,3418 230,3385 230,3310Z" style="fill:rgb(221,221,221);fill-rule:nonzero;"/>
    </g>
</svg>
